<?xml version="1.0" encoding="UTF-8" standalone="no"?>
<!-- Generator: Adobe Illustrator 19.0.0, SVG Export Plug-In . SVG Version: 6.00 Build 0)  -->

<svg
   xmlns:dc="http://purl.org/dc/elements/1.1/"
   xmlns:cc="http://creativecommons.org/ns#"
   xmlns:rdf="http://www.w3.org/1999/02/22-rdf-syntax-ns#"
   xmlns:svg="http://www.w3.org/2000/svg"
   xmlns="http://www.w3.org/2000/svg"
   xmlns:sodipodi="http://sodipodi.sourceforge.net/DTD/sodipodi-0.dtd"
   xmlns:inkscape="http://www.inkscape.org/namespaces/inkscape"
   version="1.1"
   id="Layer_1"
   x="0px"
   y="0px"
   viewBox="0 0 512 512"
   style="enable-background:new 0 0 512 512;"
   xml:space="preserve"
   sodipodi:docname="play.svg"
   inkscape:export-filename="C:\Users\Owen Shelton\Documents\My Programs\shelton-htpc\shelton-htpc\SharedAssets\play256x256.png"
   inkscape:export-xdpi="48"
   inkscape:export-ydpi="48"
   inkscape:version="0.92.1 r15371"><metadata
     id="metadata4532"><rdf:RDF><cc:Work
         rdf:about=""><dc:format>image/svg+xml</dc:format><dc:type
           rdf:resource="http://purl.org/dc/dcmitype/StillImage" /><dc:title></dc:title></cc:Work></rdf:RDF></metadata><defs
     id="defs4530" /><sodipodi:namedview
     pagecolor="#ffffff"
     bordercolor="#666666"
     borderopacity="1"
     objecttolerance="10"
     gridtolerance="10"
     guidetolerance="10"
     inkscape:pageopacity="0"
     inkscape:pageshadow="2"
     inkscape:window-width="1920"
     inkscape:window-height="1051"
     id="namedview4528"
     showgrid="false"
     inkscape:zoom="1.6777344"
     inkscape:cx="235.43655"
     inkscape:cy="256"
     inkscape:window-x="-9"
     inkscape:window-y="-9"
     inkscape:window-maximized="1"
     inkscape:current-layer="Layer_1" /><circle
     style="fill:#FF7F4F;"
     cx="256"
     cy="256"
     r="256"
     id="circle4485" /><path
     style="fill:#E03A00;"
     d="M143.496,364.385l145.503,145.503C404.085,495.076,495.24,403.846,509.928,288.72L366.187,144.979  L143.496,364.385z"
     id="path4487" /><circle
     style="fill:#FFFFFF;"
     cx="256"
     cy="256"
     r="156.444"
     id="circle4489" /><path
     style="fill:#D3D3D3;"
     d="M99.578,254.276c-0.007,0.574-0.022,1.148-0.022,1.724c0,86.402,70.042,156.444,156.444,156.444  S412.444,342.402,412.444,256c0-0.576-0.016-1.15-0.022-1.724H99.578z"
     id="path4491" /><path
     style="fill:#DB0529;"
     d="M220.074,163.693l137.862,79.594c9.785,5.649,9.785,19.773,0,25.422l-137.862,79.594  c-9.785,5.649-22.018-1.412-22.018-12.712V176.402C198.056,165.105,210.287,158.044,220.074,163.693z"
     id="path4493" /><path
     style="fill:#C2001B;"
     d="M198.056,254.276v81.318c0,11.298,12.231,18.361,22.018,12.712l137.862-79.594  c5.463-3.155,7.868-8.949,7.232-14.436H198.056z"
     id="path4495" /><g
     id="g4497" /><g
     id="g4499" /><g
     id="g4501" /><g
     id="g4503" /><g
     id="g4505" /><g
     id="g4507" /><g
     id="g4509" /><g
     id="g4511" /><g
     id="g4513" /><g
     id="g4515" /><g
     id="g4517" /><g
     id="g4519" /><g
     id="g4521" /><g
     id="g4523" /><g
     id="g4525" /></svg>