<svg xmlns="http://www.w3.org/2000/svg" viewBox="0 0 512 512">
  <circle cx="256" cy="256" r="256" fill="#ff7f4f"/>
  <path d="M143.496 364.385l145.503 145.503C404.085 495.076 495.24 403.846 509.928 288.72L366.187 144.979 143.496 364.385z" fill="#e03a00"/>
  <circle cx="256" cy="256" r="156.444" fill="#fff"/>
  <path d="M99.578 254.276c-.007.574-.022 1.148-.022 1.724 0 86.402 70.042 156.444 156.444 156.444S412.444 342.402 412.444 256c0-.576-.016-1.15-.022-1.724H99.578z" fill="#d3d3d3"/>
  <path d="M220.074 163.693l137.862 79.594c9.785 5.649 9.785 19.773 0 25.422l-137.862 79.594c-9.785 5.649-22.018-1.412-22.018-12.712V176.402c0-11.297 12.231-18.358 22.018-12.709z" fill="#db0529"/>
  <path d="M198.056 254.276v81.318c0 11.298 12.231 18.361 22.018 12.712l137.862-79.594c5.463-3.155 7.868-8.949 7.232-14.436H198.056z" fill="#c2001b"/>
</svg>